<svg xmlns="http://www.w3.org/2000/svg" viewBox="0 0 32 38" fill="none">
  <!-- Bulb body -->
  <path d="M16 3C10.5 3 6 7.5 6 13c0 3.2 1.5 6 3.8 7.8.5.4.8 1 .8 1.6V25c0 .6.4 1 1 1h8.8c.6 0 1-.4 1-1v-2.6c0-.6.3-1.2.8-1.6C24.5 19 26 16.2 26 13c0-5.5-4.5-10-10-10z" fill="#0d3b66"/>
  <!-- Rays -->
  <line x1="16" y1="0" x2="16" y2="2" stroke="#0d3b66" stroke-width="1.5" stroke-linecap="round" opacity="0.5"/>
  <line x1="7" y1="4" x2="5.5" y2="2.5" stroke="#0d3b66" stroke-width="1.5" stroke-linecap="round" opacity="0.5"/>
  <line x1="25" y1="4" x2="26.5" y2="2.5" stroke="#0d3b66" stroke-width="1.5" stroke-linecap="round" opacity="0.5"/>
  <line x1="2" y1="13" x2="0" y2="13" stroke="#0d3b66" stroke-width="1.5" stroke-linecap="round" opacity="0.5"/>
  <line x1="30" y1="13" x2="32" y2="13" stroke="#0d3b66" stroke-width="1.5" stroke-linecap="round" opacity="0.5"/>
  <!-- Base lines -->
  <rect x="10" y="27" width="12" height="1.5" rx="0.75" fill="#0d3b66" opacity="0.7"/>
  <rect x="11" y="30" width="10" height="1.5" rx="0.75" fill="#0d3b66" opacity="0.5"/>
  <!-- Chart inside bulb -->
  <rect x="11" y="16" width="2.5" height="5" rx="0.5" fill="white" opacity="0.8"/>
  <rect x="14.75" y="13" width="2.5" height="8" rx="0.5" fill="white" opacity="0.8"/>
  <rect x="18.5" y="10" width="2.5" height="11" rx="0.5" fill="white" opacity="0.8"/>
</svg>
