<svg xmlns="http://www.w3.org/2000/svg" viewBox="0 0 40 40" fill="none">
  <!-- Bulb body -->
  <path d="M20 6C14.5 6 10 10.5 10 16c0 3.5 1.8 6.5 4.5 8.2V28c0 1.1.9 2 2 2h7c1.1 0 2-.9 2-2v-3.8C28.2 22.5 30 19.5 30 16c0-5.5-4.5-10-10-10z" fill="currentColor" opacity="0.9"/>
  <!-- Bulb base lines -->
  <rect x="14" y="30.5" width="12" height="1.5" rx="0.75" fill="currentColor" opacity="0.7"/>
  <rect x="15" y="33" width="10" height="1.5" rx="0.75" fill="currentColor" opacity="0.5"/>
  <!-- Filament/rays -->
  <line x1="20" y1="2" x2="20" y2="5" stroke="currentColor" stroke-width="1.5" stroke-linecap="round" opacity="0.6"/>
  <line x1="10" y1="6" x2="7.5" y2="3.5" stroke="currentColor" stroke-width="1.5" stroke-linecap="round" opacity="0.6"/>
  <line x1="30" y1="6" x2="32.5" y2="3.5" stroke="currentColor" stroke-width="1.5" stroke-linecap="round" opacity="0.6"/>
  <line x1="5" y1="16" x2="2" y2="16" stroke="currentColor" stroke-width="1.5" stroke-linecap="round" opacity="0.6"/>
  <line x1="35" y1="16" x2="38" y2="16" stroke="currentColor" stroke-width="1.5" stroke-linecap="round" opacity="0.6"/>
</svg>
